<svg width="94" height="60" viewBox="0 0 94 60" fill="none" xmlns="http://www.w3.org/2000/svg">
<path d="M9 53.0185H11H11.5L14 54.0926L16 56.2407L18 58.3889L20.5 60H23.5L26 58.9259L28 57.3148L29 54.6296V50.3333L28 46.037L27 41.7407L26 35.8333L24.5 33.1481L22.5 32.0741L20.5 31H18L14 33.1481L9 35.8333L6 36.9074L3 39.0556L1 41.7407L0 45.5L1 48.1852L2.5 50.8704L5 51.9444L7.5 52.4815L9 53.0185Z" fill="#D1BBFF"/>
<ellipse cx="7" cy="27.5" rx="5" ry="6.5" fill="#D1BBFF"/>
<ellipse cx="37.471" cy="41.4122" rx="5.44756" ry="6.5" transform="rotate(47.2672 37.471 41.4122)" fill="#D1BBFF"/>
<ellipse cx="19.7429" cy="22.3322" rx="5.06125" ry="7.13607" transform="rotate(9.90836 19.7429 22.3322)" fill="#D1BBFF"/>
<ellipse cx="32.8646" cy="28.189" rx="5.83196" ry="7.13607" transform="rotate(34.8695 32.8646 28.189)" fill="#D1BBFF"/>
<path d="M57 38.5869H59H59.5L62 39.661L64 41.8091L66 43.9572L68.5 45.5684H71.5L74 44.4943L76 42.8832L77 40.198V35.9017L76 31.6054L75 27.3091L74 21.4017L72.5 18.7165L70.5 17.6424L68.5 16.5684H66L62 18.7165L57 21.4017L54 22.4758L51 24.6239L49 27.3091L48 31.0684L49 33.7535L50.5 36.4387L53 37.5128L55.5 38.0498L57 38.5869Z" fill="#D1BBFF"/>
<ellipse cx="55" cy="13.0684" rx="5" ry="6.5" fill="#D1BBFF"/>
<ellipse cx="85.471" cy="26.9805" rx="5.44756" ry="6.5" transform="rotate(47.2672 85.471 26.9805)" fill="#D1BBFF"/>
<ellipse cx="67.7429" cy="7.90054" rx="5.06125" ry="7.13607" transform="rotate(9.90836 67.7429 7.90054)" fill="#D1BBFF"/>
<ellipse cx="80.8646" cy="13.7574" rx="5.83196" ry="7.13607" transform="rotate(34.8695 80.8646 13.7574)" fill="#D1BBFF"/>
</svg>
